<?xml version="1.0" encoding="utf-8"?>
<!-- Generator: Adobe Illustrator 22.1.0, SVG Export Plug-In . SVG Version: 6.00 Build 0)  -->
<svg version="1.1" xmlns="http://www.w3.org/2000/svg" xmlns:xlink="http://www.w3.org/1999/xlink" x="0px" y="0px"
	 viewBox="0 0 95.4 36" style="enable-background:new 0 0 95.4 36;" xml:space="preserve">
<style type="text/css">
	.st0{fill:#FF0851;}
	.st1{fill:#FFFFFF;}
</style>
<g id="Layer_2">
</g>
<g id="Layer_1">
	<g>
		<path class="st0" d="M15.2,28.1C15.2,28,15.2,28,15.2,28.1c0-2.2,3.4-14.4,6.7-21.7c-2.6,3.3-9,13.1-10.3,15.7
			c0,0.1-0.1,0.2-0.2,0.2c0,0-0.1,0-0.2,0c-0.6,0-3-1.5-3-2.2c-0.1-1.6,2.6-8.9,3.8-12.4c-1,1.3-2.2,2.7-2.7,3.5
			c-2.6,3.8-5.8,10-5.8,11.2c0,0.1,0,0.2-0.1,0.3c-0.1,0-0.2,0.1-0.2,0.1c0,0-0.1,0-0.1,0c-1-0.2-3.2-1.4-3-2.9c0,0,0,0,0-0.1
			c1-2.4,3.2-5.7,6.8-10.2c0.5-0.6,4.4-5.5,5.5-5.9c0,0,0,0,0.1,0c0.1,0,0.2,0,0.3,0c1.2,0,2.9,1.2,3.2,2.1c0,0.1,0,0.2,0,0.3
			c-0.3,0.8-1.4,4.1-2.3,7.3c2.6-3.7,6.9-9.4,9.1-10.3c0,0,0.1,0,0.1,0c0.1,0,0.2,0,0.3,0c1.3,0,3,1.2,3.2,2.2c0,0.1,0,0.2,0,0.3
			c-2,3-7.3,20.3-7.4,24.1c0,0.3,0,0.5,0,0.7c0,0.2,0,0.3-0.2,0.4c0,0-0.1,0-0.2,0C17.9,30.6,15.3,28.7,15.2,28.1z"/>
		<path class="st0" d="M27.1,33.2c0-1.5,2.9-11,3.4-12.6l0.3-0.7c0.2-0.7,0.5-1.4,0.8-2.4c-0.6,0.9-1.1,1.7-1.7,2.5
			c-2.2,3.3-2.4,3.3-2.6,3.4h-0.1c-1.2,0-2.7-0.7-3.7-1.7c-0.6-0.6-0.8-1.2-0.8-1.8c0.1-1.3,3-9.2,5.1-12.1c0.1-0.2,0.3-0.4,0.8-0.4
			c0.9,0,2.8,1.1,2.9,1.7c0,0.2-0.1,0.4-0.2,0.5c-0.1,0.1-0.6,0.9-1.1,1.9c-1.7,3.7-2.8,6.7-3.2,8.3c1.2-1.4,3.5-4.7,5.2-7.1
			c3.5-4.9,3.9-5.4,4.2-5.4c0.1,0,0.1,0,0.2,0c0.8,0,2.8,1.1,2.9,1.7c0,0.2,0,0.3-0.2,0.5c-0.6,0.5-3.4,7.2-5,12.2
			c-0.8,2.5-2.6,9-3.2,11.6c0,0.2,0,0.3-0.1,0.5c-0.1,0.5-0.2,1-0.2,1.6c0,0.2-0.1,0.3-0.2,0.4c-0.2,0.1-0.3,0.2-0.5,0.2
			C29.2,35.9,27.1,34,27.1,33.2z"/>
		<path class="st1" d="M51.3,23.3c-0.9-0.2-2.6-1.1-2.6-2c0-0.2,0.1-0.7,0.3-1.2c-2,3-2.4,3-2.6,3c-1.5,0-3.5-1.3-3.5-2.7
			c0-1.9,1.6-5.3,3.1-7.3c0.5-0.7,1.8-2.2,3-2.2c1.1,0,2.4,0.4,3.1,1.3c0.6-1.2,1.1-2.4,1.3-2.8c0.6-1.1,2.1-4.8,2.4-5
			c0.1-0.1,0.4-0.3,0.6-0.3h0c0.7,0,2.1,0.7,2.2,1.2c0,0.2,0,0.3-0.2,0.4c-0.1,0.1-1.8,3.9-2,4.3l0,0.1c-0.7,1.3-3.1,6.7-3.9,9.2
			c-0.1,0.3-0.2,0.6-0.3,0.9c-0.4,1.3-0.7,2.3-0.6,2.7c0.1,0.1,0,0.3,0,0.4C51.5,23.3,51.4,23.3,51.3,23.3
			C51.3,23.3,51.3,23.3,51.3,23.3z M49.4,13.7c-1.5,1.6-3.4,5.5-3.4,7.2c0.9-0.7,3.4-4.3,5.1-7.1c-0.2-0.5-0.4-0.7-0.7-0.7
			C50.3,13.1,49.9,13.1,49.4,13.7z"/>
		<path class="st1" d="M55.6,23.3c-0.9-0.2-2.7-1.2-2.7-2.1c0-0.3,0.4-1.7,1-3.2c0.1-0.2,0.2-0.4,0.2-0.6c0.4-0.9,0.7-2,1.7-4
			c0.3-0.5,0.9-1.8,1.3-2.2c0.1-0.1,0.3-0.3,0.6-0.3c0.7,0,2.3,0.8,2.4,1.3c0,0.2-0.1,0.3-0.2,0.4c-0.1,0.1-0.6,0.8-0.8,1.4
			c-1,2.1-1.4,3.4-1.8,4.4c-0.4,1-1.4,3.8-1.2,4.4c0.1,0.1,0,0.3-0.1,0.4C55.9,23.3,55.8,23.3,55.6,23.3
			C55.6,23.3,55.6,23.3,55.6,23.3z M58.3,9.7C58,9.3,57.9,8.8,58,8.2c0.2-1,1.1-1.9,2.2-1.9c0.5,0,1,0.2,1.3,0.6
			c0.3,0.4,0.5,0.9,0.4,1.4c-0.2,1-1.1,1.9-2.2,1.9C59.1,10.3,58.6,10,58.3,9.7z"/>
		<path class="st1" d="M66.3,23.6c-0.9-0.2-2.7-1.2-2.7-2.1c0-0.2,0.1-0.6,0.2-1.1c-2,2.9-2.4,2.9-2.6,2.9c-1.5,0-3.6-1.4-3.6-2.7
			c0-2,1.7-5.4,3.2-7.4c0.5-0.7,1.9-2.3,3.1-2.3c1.1,0,2.5,0.4,3.3,1.4c0.2-0.3,0.4-0.6,0.5-0.8c0.1-0.1,0.3-0.3,0.6-0.3h0
			c0.7,0,2.3,0.8,2.3,1.3c0,0.1,0,0.3-0.2,0.4c-0.1,0.1-0.5,0.7-0.8,1.4c-0.9,1.9-1.4,3.3-1.9,4.7c-0.5,1.5-1,3-1,3.7
			c0,0.2,0,0.2,0,0.3c0,0.1,0,0.3-0.1,0.4C66.5,23.5,66.4,23.6,66.3,23.6C66.3,23.6,66.3,23.6,66.3,23.6z M64.4,13.7
			c-1.6,1.6-3.5,5.6-3.5,7.4c0.9-0.7,3.5-4.4,5.3-7.3c-0.2-0.6-0.4-0.8-0.7-0.8C65.3,13.1,64.9,13.1,64.4,13.7z"/>
		<path class="st1" d="M68,21.5C68,20,71.4,11,72.8,11c0.8,0,2.3,0.5,2.4,1.3L74.9,13c0.5-0.5,2.4-2.1,3.1-2.2
			c1.4,0,2.3,0.9,2.5,2.4c0.1,1.1-1.7,3.5-2.8,3.6c-0.4,0-1.9-0.8-1.9-1.2c0-0.2,0.3-0.1,0.3-0.2c0.7-0.3,1.5-1.2,1.4-2
			c0-0.1-0.2-0.2-0.2-0.2c-1.6,0-5.8,6.6-6.2,9.9c0,0.1-0.1,0.3-0.1,0.4l-0.3,0.1C70,23.5,68,22.6,68,21.5z"/>
		<path class="st1" d="M82.3,31.8c0-1.3,2.4-9.4,2.9-10.8l0.2-0.6c0.2-0.6,0.4-1.2,0.7-2c-0.5,0.8-1,1.5-1.4,2.2
			c-1.9,2.8-2,2.9-2.3,2.9h-0.1c-1,0-2.3-0.6-3.1-1.5c-0.5-0.5-0.7-1.1-0.7-1.6c0.1-1.1,2.6-7.9,4.4-10.4c0.1-0.2,0.3-0.3,0.7-0.3
			c0.7,0,2.4,1,2.5,1.4c0,0.2-0.1,0.4-0.2,0.5c-0.1,0.1-0.5,0.7-0.9,1.6c-1.4,3.2-2.4,5.7-2.7,7.1c1-1.2,3-4,4.5-6
			c3-4.2,3.3-4.6,3.6-4.6c0.1,0,0.1,0,0.2,0c0.7,0,2.4,1,2.4,1.5c0,0.2,0,0.3-0.2,0.4c-0.6,0.5-2.9,6.1-4.3,10.5
			c-0.7,2.1-2.2,7.7-2.8,9.9c0,0.2,0,0.3-0.1,0.5c-0.1,0.4-0.1,0.8-0.2,1.4c0,0.1-0.1,0.3-0.2,0.3c-0.1,0.1-0.3,0.2-0.4,0.2
			C84.1,34.2,82.3,32.5,82.3,31.8z"/>
		<path class="st0" d="M91.1,22c0-1,0.7-1.8,1.7-1.8c1,0,1.7,0.7,1.7,1.8c0,1-0.6,1.8-1.7,1.8C91.8,23.7,91.1,23,91.1,22z"/>
	</g>
	<g>
	</g>
</g>
</svg>
